<svg xmlns="http://www.w3.org/2000/svg" width="1200" height="630" viewBox="0 0 1200 630" role="img" aria-label="no-bs-pdf — Free Online PDF Editor">
  <defs>
    <radialGradient id="glow" cx="50%" cy="30%" r="75%">
      <stop offset="0%" stop-color="#1b2230"/>
      <stop offset="100%" stop-color="#0f1115"/>
    </radialGradient>
  </defs>
  <rect width="1200" height="630" fill="url(#glow)"/>
  <rect x="20" y="20" width="1160" height="590" rx="24" fill="none" stroke="#2a2f3a" stroke-width="2"/>

  <!-- icon -->
  <g transform="translate(540,86) scale(1.7)">
    <rect width="64" height="64" rx="14" fill="#171a21" stroke="#2a2f3a" stroke-width="1.5"/>
    <rect x="16" y="11" width="26" height="34" rx="3.5" fill="#e7eaf0"/>
    <rect x="21" y="19" width="16" height="3" rx="1.5" fill="#9aa3b2"/>
    <rect x="21" y="26" width="16" height="3" rx="1.5" fill="#9aa3b2"/>
    <rect x="21" y="33" width="10" height="3" rx="1.5" fill="#9aa3b2"/>
    <path d="M36.5 47.5 L50.2 33.8 a3.6 3.6 0 0 1 5.1 5.1 L41.6 52.6 l-7.2 2.1 z" fill="#4f8cff" stroke="#0f1115" stroke-width="1.4" stroke-linejoin="round"/>
  </g>

  <g font-family="'Segoe UI', system-ui, -apple-system, Roboto, Helvetica, Arial, sans-serif" text-anchor="middle">
    <text x="600" y="340" fill="#e7eaf0" font-size="74" font-weight="700" letter-spacing="-1">Free Online PDF Editor</text>
    <text x="600" y="398" fill="#9aa3b2" font-size="30">Edit PDFs privately in your browser — no uploads, no cookies</text>
    <text x="600" y="476" fill="#4f8cff" font-size="27" font-weight="600">Add text · Highlight · White-out · Images · Merge · Rotate</text>
    <text x="600" y="566" fill="#6b7585" font-size="24">📄 no-bs-pdf · 100% private · works offline · free</text>
  </g>
</svg>
